<svg width="512" height="512" viewBox="0 0 512 512" fill="none" xmlns="http://www.w3.org/2000/svg">
<path d="M146.855 77.4233L118.637 155.44L194.163 224.328L152.665 344.672L251.431 431.25L219.893 344.672L305.379 265.826V182L383.396 134.691L405.805 30.9458L406.252 26.5239C437.619 29.1528 458.323 35.4845 473.585 50.7466C499.675 76.8367 499.675 118.828 499.675 202.811V333.845C499.675 417.828 499.675 459.819 473.585 485.91C447.495 512 405.503 512 321.521 512H190.486C106.503 512 64.512 512 38.4219 485.91C12.3317 459.82 12.332 417.828 12.332 333.845V202.811C12.332 118.828 12.3317 76.8367 38.4219 50.7466C54.7076 34.4609 77.1892 28.3413 112.212 26.0415L146.855 77.4233Z" fill="black"/>
<path d="M299.128 8.09855C320.847 4.93123 341.014 19.9861 344.154 41.7082C347.293 63.4303 332.213 83.5785 310.487 86.6905C288.8 89.7965 268.696 74.7491 265.562 53.0666C262.428 31.3834 277.449 11.2606 299.128 8.09855Z" fill="#248CCD"/>
<path d="M172.969 108.19C193.253 107.112 210.622 122.571 211.904 142.844C213.186 163.117 197.902 180.64 177.643 182.126C164.356 183.1 151.569 176.863 144.155 165.794C136.742 154.724 135.844 140.524 141.804 128.609C147.764 116.693 159.665 108.897 172.969 108.19Z" fill="#F04A42"/>
<path d="M271.455 113.548C282.886 111.031 294.786 114.877 302.581 123.608C310.377 132.34 312.854 144.597 309.062 155.671C305.27 166.745 295.798 174.911 284.287 177.031C266.911 180.231 250.176 168.914 246.675 151.595C243.175 134.277 254.2 117.349 271.455 113.548Z" fill="#2CAF63"/>
<path d="M211.204 184.644C216.773 183.418 222.571 185.291 226.368 189.545C230.166 193.799 231.373 199.771 229.526 205.166C227.679 210.561 223.064 214.539 217.456 215.572C208.991 217.131 200.838 211.617 199.132 203.18C197.427 194.743 202.798 186.495 211.204 184.644Z" fill="#2CAF63"/>
<path d="M371.759 38.8491C377.328 37.6228 383.126 39.4965 386.923 43.7503C390.721 48.0041 391.928 53.9758 390.081 59.3707C388.233 64.7656 383.619 68.7442 378.011 69.7768C369.545 71.3358 361.392 65.8222 359.687 57.3848C357.981 48.9478 363.353 40.7006 371.759 38.8491Z" fill="#2CAF63"/>
<path d="M221.73 51.8757C238.449 49.0305 254.304 60.2933 257.122 77.017C259.939 93.7407 248.649 109.577 231.921 112.366C215.232 115.15 199.441 103.893 196.63 87.208C193.82 70.5231 205.051 54.7142 221.73 51.8757Z" fill="#FDC51A"/>
<path d="M227.882 273.423C240.877 271.72 252.82 280.798 254.657 293.775C256.494 306.752 247.54 318.789 234.583 320.76C226.082 322.053 217.54 318.681 212.215 311.928C206.891 305.175 205.604 296.082 208.845 288.117C212.085 280.151 219.355 274.54 227.882 273.423Z" fill="#FDC51A"/>
<path d="M163.24 20.8764C175.848 17.8324 188.552 25.5243 191.699 38.1069C194.846 50.6895 187.259 63.4567 174.703 66.7062C162 69.9939 149.052 62.299 145.868 49.5699C142.684 36.8409 150.485 23.9563 163.24 20.8764Z" fill="#248CCD"/>
<path d="M183.415 314.032C193.616 311.569 203.894 317.792 206.44 327.972C208.986 338.152 202.848 348.481 192.689 351.11C182.412 353.77 171.937 347.545 169.361 337.246C166.785 326.948 173.096 316.524 183.415 314.032Z" fill="#248CCD"/>
<path d="M262.34 188.169C278.914 185.299 294.69 196.364 297.638 212.923C300.587 229.483 289.598 245.312 273.053 248.34C256.395 251.387 240.435 240.308 237.467 223.636C234.499 206.964 245.654 191.057 262.34 188.169Z" fill="#248CCD"/>
<path d="M351.856 89.6849C364.596 87.4054 376.777 95.8678 379.085 108.603C381.393 121.338 372.958 133.538 360.229 135.874C347.459 138.219 335.212 129.75 332.896 116.976C330.58 104.201 339.075 91.9725 351.856 89.6849Z" fill="#F04A42"/>
<path d="M213.537 231.259C223.234 229.524 232.505 235.965 234.262 245.658C236.019 255.351 229.598 264.637 219.91 266.415C210.19 268.2 200.868 261.754 199.106 252.031C197.343 242.307 203.809 233 213.537 231.259Z" fill="#F04A42"/>
<path d="M220.32 2.6316C226.662 0.840168 233.478 2.60394 238.155 7.24656C242.832 11.8899 244.645 18.6924 242.899 25.0472C241.154 31.4021 236.12 36.3242 229.727 37.9266C220.045 40.3547 210.207 34.5589 207.636 24.9135C205.065 15.268 210.714 5.34453 220.32 2.6316Z" fill="#FDC51A"/>
<circle cx="211.981" cy="374.794" r="13.1645" fill="#F04A42"/>
</svg>
